<?xml version="1.0" encoding="UTF-8"?>
<svg width="1024" height="1024" viewBox="0 0 1024 1024" xmlns="http://www.w3.org/2000/svg">
  <defs>
    <clipPath id="iconClip">
      <rect x="153.6" y="153.6" width="716.8" height="716.8" rx="143.36" ry="143.36"/>
    </clipPath>
    <filter id="shadow" x="-50%" y="-50%" width="200%" height="200%">
      <feGaussianBlur in="SourceAlpha" stdDeviation="15"/>
      <feOffset dx="0" dy="10" result="offsetblur"/>
      <feFlood flood-color="#000000" flood-opacity="0.25"/>
      <feComposite in2="offsetblur" operator="in"/>
      <feMerge>
        <feMergeNode/>
        <feMergeNode in="SourceGraphic"/>
      </feMerge>
    </filter>
    <linearGradient id="photoGradient" x1="0%" y1="0%" x2="0%" y2="100%">
      <stop offset="0%" style="stop-color:black;stop-opacity:0" />
      <stop offset="100%" style="stop-color:black;stop-opacity:0.05" />
    </linearGradient>
    <linearGradient id="handleGradient" x1="0%" y1="0%" x2="100%" y2="0%">
      <stop offset="0%" style="stop-color:#ffffff" />
      <stop offset="50%" style="stop-color:#f5f5f5" />
      <stop offset="100%" style="stop-color:#e0e0e0" />
    </linearGradient>
  </defs>
  
  <!-- Main icon group with shadow -->
  <g filter="url(#shadow)">
    <!-- White photo background -->
    <rect x="153.6" y="153.6" width="716.8" height="716.8" rx="143.36" ry="143.36" fill="#ffffff"/>
    
    <!-- Photo gradient overlay -->
    <rect x="153.6" y="153.6" width="716.8" height="716.8" rx="143.36" ry="143.36" fill="url(#photoGradient)"/>
    
    <!-- Left side content (Orange) -->
    <g clip-path="url(#iconClip)">
      <clipPath id="leftClip">
        <rect x="153.6" y="153.6" width="358.4" height="716.8"/>
      </clipPath>
      <g clip-path="url(#leftClip)">
        <!-- House base -->
        <rect x="368.64" y="542.72" width="430.08" height="215.04" fill="#f97316"/>
        
        <!-- Roof -->
        <polygon points="325.632,542.72 512,435.2 698.368,542.72" fill="#f97316"/>
        
        <!-- Chimney -->
        <rect x="665.6" y="471.04" width="64.512" height="64.512" fill="#f97316"/>
        
        <!-- Door -->
        <rect x="468.992" y="606.208" width="86.016" height="75.264" fill="#ea580c"/>
        
        <!-- Windows -->
        <rect x="390.144" y="563.2" width="64.512" height="64.512" fill="#ea580c"/>
        <rect x="569.344" y="563.2" width="64.512" height="64.512" fill="#ea580c"/>
        
        <!-- Detail element on left -->
        <circle cx="307.2" cy="307.2" r="35.84" fill="#fbbf24"/>
      </g>
    </g>
    
    <!-- Right side content (Light Blue) -->
    <g clip-path="url(#iconClip)">
      <clipPath id="rightClip">
        <rect x="512" y="153.6" width="358.4" height="716.8"/>
      </clipPath>
      <g clip-path="url(#rightClip)">
        <!-- House base (slightly offset) -->
        <rect x="404.48" y="542.72" width="430.08" height="215.04" fill="#38bdf8"/>
        
        <!-- Roof -->
        <polygon points="361.472,542.72 547.84,435.2 734.208,542.72" fill="#38bdf8"/>
        
        <!-- Chimney -->
        <rect x="701.44" y="471.04" width="64.512" height="64.512" fill="#38bdf8"/>
        
        <!-- Door -->
        <rect x="504.832" y="606.208" width="86.016" height="75.264" fill="#0284c7"/>
        
        <!-- Windows -->
        <rect x="425.984" y="563.2" width="64.512" height="64.512" fill="#0284c7"/>
        <rect x="605.184" y="563.2" width="64.512" height="64.512" fill="#0284c7"/>
        
        <!-- Detail element on right -->
        <rect x="716.8" y="307.2" width="71.68" height="71.68" fill="#7dd3fc"/>
      </g>
    </g>
    
    <!-- Photo frame border -->
    <rect x="153.6" y="153.6" width="716.8" height="716.8" rx="143.36" ry="143.36" 
          fill="none" stroke="#e0e0e0" stroke-width="2"/>
    <rect x="157.6" y="157.6" width="708.8" height="708.8" 
          rx="139.36" ry="139.36" fill="none" stroke="#f5f5f5" stroke-width="1"/>
  </g>
  
  <!-- Slider handle -->
  <g>
    <defs>
      <filter id="handleShadow" x="-50%" y="-50%" width="200%" height="200%">
        <feGaussianBlur in="SourceAlpha" stdDeviation="8"/>
        <feOffset dx="2" dy="0" result="offsetblur"/>
        <feFlood flood-color="#000000" flood-opacity="0.4"/>
        <feComposite in2="offsetblur" operator="in"/>
        <feMerge>
          <feMergeNode/>
          <feMergeNode in="SourceGraphic"/>
        </feMerge>
      </filter>
    </defs>
    
    <rect x="509" y="225.28" width="6" height="573.44" rx="3" ry="3" 
          fill="url(#handleGradient)" filter="url(#handleShadow)"/>
    
    <!-- Handle center line -->
    <line x1="512" y1="296.96" x2="512" y2="727.04" 
          stroke="#999999" stroke-width="1"/>
    
    <!-- Handle grip dots -->
    <circle cx="512" cy="504" r="1.5" fill="#cccccc"/>
    <circle cx="512" cy="512" r="1.5" fill="#cccccc"/>
    <circle cx="512" cy="520" r="1.5" fill="#cccccc"/>
  </g>
</svg>